<svg xmlns="http://www.w3.org/2000/svg" xmlns:xlink="http://www.w3.org/1999/xlink" width="352" height="101" viewBox="0 0 352 101">
  <defs>
    <filter id="Rectangle_687" x="0" y="0" width="352" height="101" filterUnits="userSpaceOnUse">
      <feOffset dy="3" input="SourceAlpha"/>
      <feGaussianBlur stdDeviation="3" result="blur"/>
      <feFlood flood-opacity="0.161"/>
      <feComposite operator="in" in2="blur"/>
      <feComposite in="SourceGraphic"/>
    </filter>
  </defs>
  <g id="Group_2492" data-name="Group 2492" transform="translate(-11 -225)">
    <g id="Group_2457" data-name="Group 2457" transform="translate(-1 117)">
      <g transform="matrix(1, 0, 0, 1, 12, 108)" filter="url(#Rectangle_687)">
        <rect id="Rectangle_687-2" data-name="Rectangle 687" width="334" height="83" rx="10" transform="translate(9 6)" fill="#05d3c5"/>
      </g>
    </g>
    <g id="Group_2458" data-name="Group 2458" transform="translate(-7 -105)">
      <text id="Greener_choice_-_16_less_CO2" data-name="Greener choice - 16% less CO2" transform="translate(52 342)" fill="#fff" font-size="12" font-family="AvenirNext-Medium, Avenir Next" font-weight="500"><tspan x="0" y="12">Greener choice - 16% less CO</tspan><tspan y="12" font-size="8">2</tspan></text>
      <g id="Group_2443" data-name="Group 2443" transform="translate(-92 288.149)">
        <path id="Path_1546" data-name="Path 1546" d="M-835.283-1343.315s-.813-2.745,3.075-4.708,4.222-3.722,4.222-3.722" transform="translate(966 1411.613)" fill="none" stroke="#fff" stroke-linecap="round" stroke-width="1"/>
        <path id="Path_1547" data-name="Path 1547" d="M-834.415-1347.056a3.594,3.594,0,0,0,1.292.815,5.6,5.6,0,0,0,3.719-.546c1.9-.994,2.9-3.978,2.9-3.978a7.462,7.462,0,0,0,.705-3.035,12.28,12.28,0,0,0-.705-3.564s.429.755-1.641,2.282c-.857.632-2.246.631-3.906,1.588a6.15,6.15,0,0,0-2.752,2.9,4.1,4.1,0,0,0-.305,2.048A3.136,3.136,0,0,0-834.415-1347.056Z" transform="translate(965.949 1413)" fill="none" stroke="#fff" stroke-linecap="round" stroke-width="1"/>
      </g>
      <line id="Line_16" data-name="Line 16" x2="172" transform="translate(52.5 358.5)" fill="none" stroke="#fff" stroke-width="1"/>
      <text id="You_have_save_5_trees_taking_this_journey_compared_to_your_normal_standard_flight._" data-name="You have save 5 trees taking this journey compared to your normal standard flight. " transform="translate(39 365)" fill="#fff" font-size="12" font-family="AvenirNext-Medium, Avenir Next" font-weight="500"><tspan x="0" y="12">You have save 5 trees taking this </tspan><tspan x="0" y="27">journey compared to your normal </tspan><tspan x="0" y="42">standard flight. </tspan></text>
    </g>
    <g id="Group_2485" data-name="Group 2485" transform="translate(2499 1950.317)">
      <path id="Path_1574" data-name="Path 1574" d="M-2225.739-1695.317l-8.634,24.766h16.35Z" fill="none" stroke="#fff" stroke-linecap="round" stroke-width="2"/>
      <line id="Line_25" data-name="Line 25" y2="21.816" transform="translate(-2225.739 -1681.633)" fill="none" stroke="#fff" stroke-linecap="round" stroke-width="2"/>
    </g>
    <text id="_5" data-name="5" transform="translate(240 255)" fill="#fff" font-size="28" font-family="AvenirNext-DemiBold, Avenir Next" font-weight="300"><tspan x="0" y="28">5</tspan></text>
    <text id="Saved" transform="translate(289 261)" fill="#fff" font-size="18" font-family="AvenirNext-DemiBold, Avenir Next" font-weight="300"><tspan x="0" y="18">Saved</tspan></text>
    <path id="Path_1575" data-name="Path 1575" d="M-2215-1286h50.557" transform="translate(2504 1570)" fill="none" stroke="#fff" stroke-width="2"/>
  </g>
</svg>
